<svg xmlns="http://www.w3.org/2000/svg" viewBox="0 0 236.7 205.66"><defs><style>.cls-1{fill:#fff;}</style></defs><g id="Layer_2" data-name="Layer 2"><g id="Layer_1-2" data-name="Layer 1"><path class="cls-1" d="M200.15,131.18l-57.41-100L160.52,0,75.64,0,93.86,31.5,36.37,131.62,0,131.86l42.72,73.8,17.61-30.91H176.66l17.68,30.54,42.36-74.35ZM133.23,15.86,118.3,42.07l-15.16-26.2Zm-14.88,58,33.23,57.56H85.12Zm-75.74,100L27.4,147.54l30.3-.19Zm8.44-42.29,50.16-87.34,8,13.8-42.4,73.44Zm16.51,30.54L76,147.26h84.76l8.57,14.81Zm102.32-30.7L127.49,58l8-14,50.12,87.28Zm24.35,42.08L179,147.17l30.29-.19Z"/></g></g></svg>