<svg xmlns="http://www.w3.org/2000/svg" xmlns:xlink="http://www.w3.org/1999/xlink" viewBox="0 0 379.29 392.12">
	<defs>
		<style>
			.cls-1,
			.cls-5,
			.cls-7{
				fill:none;
			}
			.cls-2{
				fill:#fff;
				opacity:0.25;
			}
			.cls-2,
			.cls-4{
				isolation:isolate;
			}
			.cls-3,
			.cls-4{
				fill:#ffdc32;
			}
			.cls-3{
				opacity:0.8;
			}
			.cls-4{
				opacity:0.8;
			}
			.cls-5,
			.cls-7{
				stroke:#fff;
				stroke-linecap:round;
				stroke-linejoin:round;
			}
			.cls-5{
				stroke-width:2.22px;
			}
			.cls-6{
				clip-path:url(#clip-path);
			}
			.cls-7{
				stroke-width:0.56px;
			}
			.cls-8{
				clip-path:url(#clip-path-2);
			}
			.cls-9{
				clip-path:url(#clip-path-3);
			}
			.cls-10{
				clip-path:url(#clip-path-4);
			}
			.cls-11{
				clip-path:url(#clip-path-5);
			}
			.cls-12{
				clip-path:url(#clip-path-6);
			}
			.cls-13{
				clip-path:url(#clip-path-7);
			}
			.cls-14{
				clip-path:url(#clip-path-8);
			}
			.cls-15{
				clip-path:url(#clip-path-9);
			}
			.cls-16{
				clip-path:url(#clip-path-10);
			}
			.cls-17{
				clip-path:url(#clip-path-11);
			}
			.cls-18{
				clip-path:url(#clip-path-12);
			}
			.cls-19{
				clip-path:url(#clip-path-13);
			}
			.cls-20{
				clip-path:url(#clip-path-14);
			}
			.cls-21{
				clip-path:url(#clip-path-15);
			}
			.cls-22{
				clip-path:url(#clip-path-16);
			}
			.cls-23{
				clip-path:url(#clip-path-17);
			}
			.cls-24{
				clip-path:url(#clip-path-18);
			}
			.cls-25{
				clip-path:url(#clip-path-19);
			}
			.cls-26{
				clip-path:url(#clip-path-20);
			}
			.cls-27{
				clip-path:url(#clip-path-21);
			}
			.cls-28{
				clip-path:url(#clip-path-22);
			}
			.cls-29{
				clip-path:url(#clip-path-23);
			}
			.cls-30{
				clip-path:url(#clip-path-24);
			}
			.cls-31{
				clip-path:url(#clip-path-25);
			}
			.cls-32{
				clip-path:url(#clip-path-26);
			}
			.cls-33{
				clip-path:url(#clip-path-27);
			}
			.cls-34{
				clip-path:url(#clip-path-28);
			}
			.cls-35{
				clip-path:url(#clip-path-29);
			}
			.cls-36{
				clip-path:url(#clip-path-30);
			}
			.cls-37{
				clip-path:url(#clip-path-31);
			}
			.cls-38{
				clip-path:url(#clip-path-32);
			}
			.cls-39{
				clip-path:url(#clip-path-33);
			}
			.cls-40{
				clip-path:url(#clip-path-34);
			}
			.cls-41{
				clip-path:url(#clip-path-35);
			}
			.cls-42{
				clip-path:url(#clip-path-36);
			}
			.cls-43{
				clip-path:url(#clip-path-37);
			}
			.cls-44{
				clip-path:url(#clip-path-38);
			}
		</style>
		<clipPath id="clip-path">
			<path class="cls-1" d="M239.62,192.07l43.55-13.22-47.49,131-22.3-41.5-138.65,41L55,363.8,1.11,263.53l43.33-13.15L108.92,73.76,85.93,31,187.09,1.11l-19.94,55Zm-177.68,53,18.75-5.7,47.56-129.62L118.18,91,61.94,245.07m141.61-42,18.7-5.68L159,78.65l-8.93,24.61L203.55,203m-63.74-71.74-37.28,101.6,79.22-23.38-41.94-78.22M82.84,287l121.27-35.79-10.8-20.13-101,29.81L82.84,287M53.58,314.09,70.5,267.44l-36.11,11,19.19,35.69m180.68-53.9,16.91-46.65-36.09,11,19.18,35.69M155.2,35.5,119.34,46.08l19.13,35.58L155.2,35.5"/>
		</clipPath>
		<clipPath id="clip-path-2">
			<path class="cls-1" d="M334.63,219.28l43.55-13.22L330.69,337.11l-22.3-41.5L169.74,336.52,150,391,96.12,290.74l43.33-13.16L203.93,101l-23-42.77L282.1,28.32l-19.94,55ZM157,272.28l18.75-5.7L223.26,137l-10.07-18.75L157,272.28m141.61-42,18.7-5.68L254,105.86l-8.93,24.61,53.49,99.76m-63.74-71.74-37.28,101.6,79.22-23.38-41.94-78.22m-57,155.69L299.1,278.39l-10.81-20.13-101,29.81-9.45,26.11M148.59,341.3l16.92-46.65-36.11,11,19.19,35.69m180.68-53.9,16.91-46.65L310.09,251.7l19.18,35.7M250.21,62.71,214.35,73.29l19.13,35.58,16.73-46.16"/>
		</clipPath>
		<clipPath id="clip-path-3">
			<polygon class="cls-1" points="334.63 219.28 239.62 192.07 283.17 178.85 378.18 206.06 334.63 219.28"/>
		</clipPath>
		<clipPath id="clip-path-4">
			<polygon class="cls-1" points="378.18 206.06 330.69 337.11 235.68 309.9 283.17 178.85 378.18 206.06"/>
		</clipPath>
		<clipPath id="clip-path-5">
			<polygon class="cls-1" points="330.69 337.11 235.68 309.9 213.38 268.4 308.39 295.61 330.69 337.11"/>
		</clipPath>
		<clipPath id="clip-path-6">
			<polygon class="cls-1" points="308.39 295.61 169.74 336.52 74.73 309.31 213.38 268.4 308.39 295.61"/>
		</clipPath>
		<clipPath id="clip-path-7">
			<polygon class="cls-1" points="169.74 336.52 150.01 391.01 55 363.8 74.73 309.31 169.74 336.52"/>
		</clipPath>
		<clipPath id="clip-path-8">
			<polygon class="cls-1" points="150.01 391.01 55 363.8 1.11 263.53 96.12 290.74 150.01 391.01"/>
		</clipPath>
		<clipPath id="clip-path-9">
			<polygon class="cls-1" points="96.12 290.74 1.11 263.53 44.44 250.38 139.45 277.58 96.12 290.74"/>
		</clipPath>
		<clipPath id="clip-path-10">
			<polygon class="cls-1" points="139.45 277.58 44.44 250.38 108.92 73.76 203.93 100.97 139.45 277.58"/>
		</clipPath>
		<clipPath id="clip-path-11">
			<polygon class="cls-1" points="203.93 100.97 108.92 73.76 85.93 31 180.94 58.2 203.93 100.97"/>
		</clipPath>
		<clipPath id="clip-path-12">
			<polygon class="cls-1" points="180.94 58.2 85.93 31 187.09 1.11 282.11 28.32 180.94 58.2"/>
		</clipPath>
		<clipPath id="clip-path-13">
			<polygon class="cls-1" points="282.11 28.32 262.16 83.32 167.15 56.11 187.09 1.11 282.11 28.32"/>
		</clipPath>
		<clipPath id="clip-path-14">
			<polygon class="cls-1" points="262.16 83.32 334.63 219.28 239.62 192.07 167.15 56.11 262.16 83.32"/>
		</clipPath>
		<clipPath id="clip-path-15">
			<polygon class="cls-1" points="156.95 272.28 61.94 245.07 80.69 239.37 175.7 266.58 156.95 272.28"/>
		</clipPath>
		<clipPath id="clip-path-16">
			<polygon class="cls-1" points="175.7 266.58 80.69 239.37 128.25 109.75 223.26 136.96 175.7 266.58"/>
		</clipPath>
		<clipPath id="clip-path-17">
			<polygon class="cls-1" points="223.26 136.96 128.25 109.75 118.18 91 213.19 118.21 223.26 136.96"/>
		</clipPath>
		<clipPath id="clip-path-18">
			<polygon class="cls-1" points="213.19 118.21 156.95 272.28 61.94 245.07 118.18 91 213.19 118.21"/>
		</clipPath>
		<clipPath id="clip-path-19">
			<polygon class="cls-1" points="298.56 230.23 203.55 203.02 222.25 197.34 317.26 224.55 298.56 230.23"/>
		</clipPath>
		<clipPath id="clip-path-20">
			<polygon class="cls-1" points="317.26 224.55 222.25 197.34 158.99 78.65 254 105.86 317.26 224.55"/>
		</clipPath>
		<clipPath id="clip-path-21">
			<polygon class="cls-1" points="254 105.86 245.07 130.47 150.06 103.26 158.99 78.65 254 105.86"/>
		</clipPath>
		<clipPath id="clip-path-22">
			<polygon class="cls-1" points="245.07 130.47 298.56 230.23 203.55 203.02 150.06 103.26 245.07 130.47"/>
		</clipPath>
		<clipPath id="clip-path-23">
			<polygon class="cls-1" points="234.82 158.49 197.54 260.09 102.53 232.88 139.81 131.28 234.82 158.49"/>
		</clipPath>
		<clipPath id="clip-path-24">
			<polygon class="cls-1" points="197.54 260.09 102.53 232.88 181.75 209.5 276.76 236.71 197.54 260.09"/>
		</clipPath>
		<clipPath id="clip-path-25">
			<polygon class="cls-1" points="276.76 236.71 181.75 209.5 139.81 131.28 234.82 158.49 276.76 236.71"/>
		</clipPath>
		<clipPath id="clip-path-26">
			<polygon class="cls-1" points="177.85 314.18 82.84 286.97 204.12 251.18 299.13 278.39 177.85 314.18"/>
		</clipPath>
		<clipPath id="clip-path-27">
			<polygon class="cls-1" points="299.13 278.39 204.12 251.18 193.31 231.05 288.32 258.26 299.13 278.39"/>
		</clipPath>
		<clipPath id="clip-path-28">
			<polygon class="cls-1" points="288.32 258.26 187.3 288.07 92.29 260.86 193.31 231.05 288.32 258.26"/>
		</clipPath>
		<clipPath id="clip-path-29">
			<polygon class="cls-1" points="187.3 288.07 177.85 314.18 82.84 286.97 92.29 260.86 187.3 288.07"/>
		</clipPath>
		<clipPath id="clip-path-30">
			<polygon class="cls-1" points="148.59 341.3 53.58 314.09 70.5 267.44 165.51 294.65 148.59 341.3"/>
		</clipPath>
		<clipPath id="clip-path-31">
			<polygon class="cls-1" points="165.51 294.65 129.4 305.61 34.39 278.4 70.5 267.44 165.51 294.65"/>
		</clipPath>
		<clipPath id="clip-path-32">
			<polygon class="cls-1" points="129.4 305.61 148.59 341.3 53.58 314.09 34.39 278.4 129.4 305.61"/>
		</clipPath>
		<clipPath id="clip-path-33">
			<polygon class="cls-1" points="329.27 287.4 234.26 260.19 251.17 213.54 346.19 240.75 329.27 287.4"/>
		</clipPath>
		<clipPath id="clip-path-34">
			<polygon class="cls-1" points="346.19 240.75 310.09 251.71 215.08 224.5 251.17 213.54 346.19 240.75"/>
		</clipPath>
		<clipPath id="clip-path-35">
			<polygon class="cls-1" points="310.09 251.71 329.27 287.4 234.26 260.19 215.08 224.5 310.09 251.71"/>
		</clipPath>
		<clipPath id="clip-path-36">
			<polygon class="cls-1" points="250.21 62.71 214.35 73.29 119.34 46.08 155.2 35.5 250.21 62.71"/>
		</clipPath>
		<clipPath id="clip-path-37">
			<polygon class="cls-1" points="214.35 73.29 233.48 108.87 138.47 81.66 119.34 46.08 214.35 73.29"/>
		</clipPath>
		<clipPath id="clip-path-38">
			<polygon class="cls-1" points="233.48 108.87 138.47 81.66 155.2 35.5 250.21 62.71 233.48 108.87"/>
		</clipPath>
	</defs>
	<g id="Layer_2" data-name="Layer 2">
		<g id="top_ghost" data-name="top ghost">
			<polygon class="cls-2" points="119.34 46.08 138.47 81.66 233.48 108.87 250.21 62.71 155.2 35.5 119.34 46.08"/>
		</g>
		<g id="top_full" data-name="top full">
			<polygon class="cls-3" points="119.34 46.08 138.47 81.66 233.48 108.87 250.21 62.71 155.2 35.5 119.34 46.08"/>
		</g>
		<g id="left_ghost" data-name="left ghost">
			<polygon class="cls-2" points="34.39 278.4 70.5 267.44 165.51 294.65 148.59 341.3 54.19 313.99 34.39 278.4"/>
		</g>
		<g id="left_full" data-name="left full">
			<polygon class="cls-3" points="34.39 278.4 70.5 267.44 165.51 294.65 148.59 341.3 54.19 313.99 34.39 278.4"/>
		</g>
		<g id="right_ghost" data-name="right ghost">
			<polygon class="cls-2" points="329.27 287.4 346.19 240.75 251.17 213.54 215.26 224.49 234.26 260.19 329.27 287.4"/>
		</g>
		<g id="right_full" data-name="right full">
			<polygon class="cls-3" points="329.27 287.4 346.19 240.75 251.18 213.54 215.26 224.5 234.26 260.19 329.27 287.4"/>
		</g>
		<g id="middle">
			<polygon class="cls-4" points="139.16 131.09 234.18 158.31 276.12 236.53 196.9 259.9 101.89 232.69 139.16 131.09"/>
		</g>
		<g id="frame">
			<g id="Layer_2-2" data-name="Layer 2">
				<g id="Layer_1-2" data-name="Layer 1-2">
					<polygon class="cls-5" points="85.93 31 187.09 1.11 282.11 28.32 262.16 83.32 318.52 189.73 378.18 206.06 330.69 337.11 248.25 313.81 169.74 336.52 150.01 391.01 55 363.8 1.11 263.53 44.44 250.38 108.92 73.76 85.93 31"/>
					<g class="cls-6">
						<path class="cls-7" d="M239.62,192.07l43.55-13.22-47.49,131-22.3-41.5-138.65,41L55,363.8,1.11,263.53l43.33-13.15L108.92,73.76,85.93,31,187.09,1.11l-19.94,55Zm-177.68,53,18.75-5.7,47.56-129.62L118.18,91,61.94,245.07m141.61-42,18.7-5.68L159,78.65l-8.93,24.61L203.55,203m-63.74-71.74-37.28,101.6,79.22-23.38-41.94-78.22M82.84,287l121.27-35.79-10.8-20.13-101,29.81L82.84,287M53.58,314.09,70.5,267.44l-36.11,11,19.19,35.69m180.68-53.9,16.91-46.65-36.09,11,19.18,35.69M155.2,35.5,119.34,46.08l19.13,35.58L155.2,35.5"/>
					</g>
					<path class="cls-7" d="M239.62,192.07l43.55-13.22-47.49,131-22.3-41.5-138.65,41L55,363.8,1.11,263.53l43.33-13.15L108.92,73.76,85.93,31,187.09,1.11l-19.94,55Zm-177.68,53,18.75-5.7,47.56-129.62L118.18,91,61.94,245.07m141.61-42,18.7-5.68L159,78.65l-8.93,24.61L203.55,203m-63.74-71.74-37.28,101.6,79.22-23.38-41.94-78.22M82.84,287l121.27-35.79-10.8-20.13-101,29.81L82.84,287M53.58,314.09,70.5,267.44l-36.11,11,19.19,35.69m180.68-53.9,16.91-46.65-36.09,11,19.18,35.69M155.2,35.5,119.34,46.08l19.13,35.58L155.2,35.5"/>
					<g class="cls-8">
						<path class="cls-7" d="M334.63,219.28l43.55-13.22L330.69,337.11l-22.3-41.5L169.74,336.52,150,391,96.12,290.74l43.33-13.16L203.93,101l-23-42.77L282.1,28.32l-19.94,55ZM157,272.28l18.75-5.7L223.26,137l-10.07-18.75L157,272.28m141.61-42,18.7-5.68L254,105.86l-8.93,24.61,53.49,99.76m-63.74-71.74-37.28,101.6,79.22-23.38-41.94-78.22m-57,155.69L299.1,278.39l-10.81-20.13-101,29.81-9.45,26.11M148.59,341.3l16.92-46.65-36.11,11,19.19,35.69m180.68-53.9,16.91-46.65L310.09,251.7l19.18,35.7M250.21,62.71,214.35,73.29l19.13,35.58,16.73-46.16"/>
					</g>
					<path class="cls-7" d="M334.63,219.28l43.55-13.22L330.69,337.11l-22.3-41.5L169.74,336.52,150,391,96.12,290.74l43.33-13.16L203.93,101l-23-42.77L282.1,28.32l-19.94,55ZM157,272.28l18.75-5.7L223.26,137l-10.07-18.75L157,272.28m141.61-42,18.7-5.68L254,105.86l-8.93,24.61,53.49,99.76m-63.74-71.74-37.28,101.6,79.22-23.38-41.94-78.22m-57,155.69L299.1,278.39l-10.81-20.13-101,29.81-9.45,26.11M148.59,341.3l16.92-46.65-36.11,11,19.19,35.69m180.68-53.9,16.91-46.65L310.09,251.7l19.18,35.7M250.21,62.71,214.35,73.29l19.13,35.58,16.73-46.16"/>
					<g class="cls-9">
						<polygon class="cls-7" points="334.63 219.28 239.62 192.07 283.17 178.85 378.18 206.06 334.63 219.28"/>
					</g>
					<polygon class="cls-7" points="334.63 219.28 239.62 192.07 283.17 178.85 378.18 206.06 334.63 219.28"/>
					<g class="cls-10">
						<polygon class="cls-7" points="378.18 206.06 330.69 337.11 235.68 309.9 283.17 178.85 378.18 206.06"/>
					</g>
					<polygon class="cls-7" points="378.18 206.06 330.69 337.11 235.68 309.9 283.17 178.85 378.18 206.06"/>
					<g class="cls-11">
						<polygon class="cls-7" points="330.69 337.11 235.68 309.9 213.38 268.4 308.39 295.61 330.69 337.11"/>
					</g>
					<polygon class="cls-7" points="330.69 337.11 235.68 309.9 213.38 268.4 308.39 295.61 330.69 337.11"/>
					<g class="cls-12">
						<polygon class="cls-7" points="308.39 295.61 169.74 336.52 74.73 309.31 213.38 268.4 308.39 295.61"/>
					</g>
					<polygon class="cls-7" points="308.39 295.61 169.74 336.52 74.73 309.31 213.38 268.4 308.39 295.61"/>
					<g class="cls-13">
						<polygon class="cls-7" points="169.74 336.52 150.01 391.01 55 363.8 74.73 309.31 169.74 336.52"/>
					</g>
					<polygon class="cls-7" points="169.74 336.52 150.01 391.01 55 363.8 74.73 309.31 169.74 336.52"/>
					<g class="cls-14">
						<polygon class="cls-7" points="150.01 391.01 55 363.8 1.11 263.53 96.12 290.74 150.01 391.01"/>
					</g>
					<polygon class="cls-7" points="150.01 391.01 55 363.8 1.11 263.53 96.12 290.74 150.01 391.01"/>
					<g class="cls-15">
						<polygon class="cls-7" points="96.12 290.74 1.11 263.53 44.44 250.38 139.45 277.58 96.12 290.74"/>
					</g>
					<polygon class="cls-7" points="96.12 290.74 1.11 263.53 44.44 250.38 139.45 277.58 96.12 290.74"/>
					<g class="cls-16">
						<polygon class="cls-7" points="139.45 277.58 44.44 250.38 108.92 73.76 203.93 100.97 139.45 277.58"/>
					</g>
					<polygon class="cls-7" points="139.45 277.58 44.44 250.38 108.92 73.76 203.93 100.97 139.45 277.58"/>
					<g class="cls-17">
						<polygon class="cls-7" points="203.93 100.97 108.92 73.76 85.93 31 180.94 58.2 203.93 100.97"/>
					</g>
					<polygon class="cls-7" points="203.93 100.97 108.92 73.76 85.93 31 180.94 58.2 203.93 100.97"/>
					<g class="cls-18">
						<polygon class="cls-7" points="180.94 58.2 85.93 31 187.09 1.11 282.11 28.32 180.94 58.2"/>
					</g>
					<polygon class="cls-7" points="180.94 58.2 85.93 31 187.09 1.11 282.11 28.32 180.94 58.2"/>
					<g class="cls-19">
						<polygon class="cls-7" points="282.11 28.32 262.16 83.32 167.15 56.11 187.09 1.11 282.11 28.32"/>
					</g>
					<polygon class="cls-7" points="282.11 28.32 262.16 83.32 167.15 56.11 187.09 1.11 282.11 28.32"/>
					<g class="cls-20">
						<polygon class="cls-7" points="262.16 83.32 334.63 219.28 239.62 192.07 167.15 56.11 262.16 83.32"/>
					</g>
					<polygon class="cls-7" points="262.16 83.32 334.63 219.28 239.62 192.07 167.15 56.11 262.16 83.32"/>
					<g class="cls-21">
						<polygon class="cls-7" points="156.95 272.28 61.94 245.07 80.69 239.37 175.7 266.58 156.95 272.28"/>
					</g>
					<polygon class="cls-7" points="156.95 272.28 61.94 245.07 80.69 239.37 175.7 266.58 156.95 272.28"/>
					<g class="cls-22">
						<polygon class="cls-7" points="175.7 266.58 80.69 239.37 128.25 109.75 223.26 136.96 175.7 266.58"/>
					</g>
					<polygon class="cls-7" points="175.7 266.58 80.69 239.37 128.25 109.75 223.26 136.96 175.7 266.58"/>
					<g class="cls-23">
						<polygon class="cls-7" points="223.26 136.96 128.25 109.75 118.18 91 213.19 118.21 223.26 136.96"/>
					</g>
					<polygon class="cls-7" points="223.26 136.96 128.25 109.75 118.18 91 213.19 118.21 223.26 136.96"/>
					<g class="cls-24">
						<polygon class="cls-7" points="213.19 118.21 156.95 272.28 61.94 245.07 118.18 91 213.19 118.21"/>
					</g>
					<polygon class="cls-7" points="213.19 118.21 156.95 272.28 61.94 245.07 118.18 91 213.19 118.21"/>
					<g class="cls-25">
						<polygon class="cls-7" points="298.56 230.23 203.55 203.02 222.25 197.34 317.26 224.55 298.56 230.23"/>
					</g>
					<polygon class="cls-7" points="298.56 230.23 203.55 203.02 222.25 197.34 317.26 224.55 298.56 230.23"/>
					<g class="cls-26">
						<polygon class="cls-7" points="317.26 224.55 222.25 197.34 158.99 78.65 254 105.86 317.26 224.55"/>
					</g>
					<polygon class="cls-7" points="317.26 224.55 222.25 197.34 158.99 78.65 254 105.86 317.26 224.55"/>
					<g class="cls-27">
						<polygon class="cls-7" points="254 105.86 245.07 130.47 150.06 103.26 158.99 78.65 254 105.86"/>
					</g>
					<polygon class="cls-7" points="254 105.86 245.07 130.47 150.06 103.26 158.99 78.65 254 105.86"/>
					<g class="cls-28">
						<polygon class="cls-7" points="245.07 130.47 298.56 230.23 203.55 203.02 150.06 103.26 245.07 130.47"/>
					</g>
					<polygon class="cls-7" points="245.07 130.47 298.56 230.23 203.55 203.02 150.06 103.26 245.07 130.47"/>
					<g class="cls-29">
						<polygon class="cls-7" points="234.82 158.49 197.54 260.09 102.53 232.88 139.81 131.28 234.82 158.49"/>
					</g>
					<polygon class="cls-7" points="234.82 158.49 197.54 260.09 102.53 232.88 139.81 131.28 234.82 158.49"/>
					<g class="cls-30">
						<polygon class="cls-7" points="197.54 260.09 102.53 232.88 181.75 209.5 276.76 236.71 197.54 260.09"/>
					</g>
					<polygon class="cls-7" points="197.54 260.09 102.53 232.88 181.75 209.5 276.76 236.71 197.54 260.09"/>
					<g class="cls-31">
						<polygon class="cls-7" points="276.76 236.71 181.75 209.5 139.81 131.28 234.82 158.49 276.76 236.71"/>
					</g>
					<polygon class="cls-7" points="276.76 236.71 181.75 209.5 139.81 131.28 234.82 158.49 276.76 236.71"/>
					<g class="cls-32">
						<polygon class="cls-7" points="177.85 314.18 82.84 286.97 204.12 251.18 299.13 278.39 177.85 314.18"/>
					</g>
					<polygon class="cls-7" points="177.85 314.18 82.84 286.97 204.12 251.18 299.13 278.39 177.85 314.18"/>
					<g class="cls-33">
						<polygon class="cls-7" points="299.13 278.39 204.12 251.18 193.31 231.05 288.32 258.26 299.13 278.39"/>
					</g>
					<polygon class="cls-7" points="299.13 278.39 204.12 251.18 193.31 231.05 288.32 258.26 299.13 278.39"/>
					<g class="cls-34">
						<polygon class="cls-7" points="288.32 258.26 187.3 288.07 92.29 260.86 193.31 231.05 288.32 258.26"/>
					</g>
					<polygon class="cls-7" points="288.32 258.26 187.3 288.07 92.29 260.86 193.31 231.05 288.32 258.26"/>
					<g class="cls-35">
						<polygon class="cls-7" points="187.3 288.07 177.85 314.18 82.84 286.97 92.29 260.86 187.3 288.07"/>
					</g>
					<polygon class="cls-7" points="187.3 288.07 177.85 314.18 82.84 286.97 92.29 260.86 187.3 288.07"/>
					<g class="cls-36">
						<polygon class="cls-7" points="148.59 341.3 53.58 314.09 70.5 267.44 165.51 294.65 148.59 341.3"/>
					</g>
					<polygon class="cls-7" points="148.59 341.3 53.58 314.09 70.5 267.44 165.51 294.65 148.59 341.3"/>
					<g class="cls-37">
						<polygon class="cls-7" points="165.51 294.65 129.4 305.61 34.39 278.4 70.5 267.44 165.51 294.65"/>
					</g>
					<polygon class="cls-7" points="165.51 294.65 129.4 305.61 34.39 278.4 70.5 267.44 165.51 294.65"/>
					<g class="cls-38">
						<polygon class="cls-7" points="129.4 305.61 148.59 341.3 53.58 314.09 34.39 278.4 129.4 305.61"/>
					</g>
					<polygon class="cls-7" points="129.4 305.61 148.59 341.3 53.58 314.09 34.39 278.4 129.4 305.61"/>
					<g class="cls-39">
						<polygon class="cls-7" points="329.27 287.4 234.26 260.19 251.17 213.54 346.19 240.75 329.27 287.4"/>
					</g>
					<polygon class="cls-7" points="329.27 287.4 234.26 260.19 251.17 213.54 346.19 240.75 329.27 287.4"/>
					<g class="cls-40">
						<polygon class="cls-7" points="346.19 240.75 310.09 251.71 215.08 224.5 251.17 213.54 346.19 240.75"/>
					</g>
					<polygon class="cls-7" points="346.19 240.75 310.09 251.71 215.08 224.5 251.17 213.54 346.19 240.75"/>
					<g class="cls-41">
						<polygon class="cls-7" points="310.09 251.71 329.27 287.4 234.26 260.19 215.08 224.5 310.09 251.71"/>
					</g>
					<polygon class="cls-7" points="310.09 251.71 329.27 287.4 234.26 260.19 215.08 224.5 310.09 251.71"/>
					<g class="cls-42">
						<polygon class="cls-7" points="250.21 62.71 214.35 73.29 119.34 46.08 155.2 35.5 250.21 62.71"/>
					</g>
					<polygon class="cls-7" points="250.21 62.71 214.35 73.29 119.34 46.08 155.2 35.5 250.21 62.71"/>
					<g class="cls-43">
						<polygon class="cls-7" points="214.35 73.29 233.48 108.87 138.47 81.66 119.34 46.08 214.35 73.29"/>
					</g>
					<polygon class="cls-7" points="214.35 73.29 233.48 108.87 138.47 81.66 119.34 46.08 214.35 73.29"/>
					<g class="cls-44">
						<polygon class="cls-7" points="233.48 108.87 138.47 81.66 155.2 35.5 250.21 62.71 233.48 108.87"/>
					</g>
					<polygon class="cls-7" points="233.48 108.87 138.47 81.66 155.2 35.5 250.21 62.71 233.48 108.87"/>
				</g>
			</g>
		</g>
	</g>
</svg>