<?xml version="1.0" encoding="utf-8"?>
<!-- Generator: Adobe Illustrator 24.3.0, SVG Export Plug-In . SVG Version: 6.00 Build 0)  -->
<svg version="1.1" id="Layer_1" xmlns="http://www.w3.org/2000/svg" xmlns:xlink="http://www.w3.org/1999/xlink" x="0px" y="0px"
	 viewBox="0 0 379.3 392.1" style="enable-background:new 0 0 379.3 392.1;" xml:space="preserve">
<style type="text/css">
	.st0{opacity:0.25;fill:#FFFFFF;enable-background:new;}
	.st1{opacity:0.8;fill:#FFDC32;enable-background:new;}
	.st2{opacity:0.25;fill:#FFFFFF;}
	.st3{opacity:0.8;fill:#F7931E;enable-background:new;}
	.st4{fill:none;stroke:#FFFFFF;stroke-width:2.22;stroke-linecap:round;stroke-linejoin:round;}
	.st5{clip-path:url(#SVGID_2_);}
	.st6{fill:none;stroke:#FFFFFF;stroke-width:0.56;stroke-linecap:round;stroke-linejoin:round;}
	.st7{clip-path:url(#SVGID_4_);}
	.st8{clip-path:url(#SVGID_6_);}
	.st9{clip-path:url(#SVGID_8_);}
	.st10{clip-path:url(#SVGID_10_);}
	.st11{clip-path:url(#SVGID_12_);}
	.st12{clip-path:url(#SVGID_14_);}
	.st13{clip-path:url(#SVGID_16_);}
	.st14{clip-path:url(#SVGID_18_);}
	.st15{clip-path:url(#SVGID_20_);}
	.st16{clip-path:url(#SVGID_22_);}
	.st17{clip-path:url(#SVGID_24_);}
	.st18{clip-path:url(#SVGID_26_);}
	.st19{clip-path:url(#SVGID_28_);}
	.st20{clip-path:url(#SVGID_30_);}
	.st21{clip-path:url(#SVGID_32_);}
	.st22{clip-path:url(#SVGID_34_);}
	.st23{clip-path:url(#SVGID_36_);}
	.st24{clip-path:url(#SVGID_38_);}
	.st25{clip-path:url(#SVGID_40_);}
	.st26{clip-path:url(#SVGID_42_);}
	.st27{clip-path:url(#SVGID_44_);}
	.st28{clip-path:url(#SVGID_46_);}
	.st29{clip-path:url(#SVGID_48_);}
	.st30{clip-path:url(#SVGID_50_);}
	.st31{clip-path:url(#SVGID_52_);}
	.st32{clip-path:url(#SVGID_54_);}
	.st33{clip-path:url(#SVGID_56_);}
	.st34{clip-path:url(#SVGID_58_);}
	.st35{clip-path:url(#SVGID_60_);}
	.st36{clip-path:url(#SVGID_62_);}
	.st37{clip-path:url(#SVGID_64_);}
	.st38{clip-path:url(#SVGID_66_);}
	.st39{clip-path:url(#SVGID_68_);}
	.st40{clip-path:url(#SVGID_70_);}
	.st41{clip-path:url(#SVGID_72_);}
	.st42{clip-path:url(#SVGID_74_);}
	.st43{clip-path:url(#SVGID_76_);}
</style>
<g id="Layer_2_1_">
	<g id="middle_ghost">
		<polygon class="st0" points="139.2,132.1 234.2,159.3 276.1,237.5 196.9,260.9 101.9,233.7"/>
	</g>
	<g id="middle_full">
		<polygon class="st1" points="139.2,132.1 234.2,159.3 276.1,237.5 196.9,260.9 101.9,233.7"/>
	</g>
	<g id="top_ghost">
		<polygon class="st0" points="119.3,46.1 138.5,81.7 233.5,108.9 250.2,62.7 155.2,35.5"/>
	</g>
	<g id="top_full">
		<polygon class="st1" points="119.3,46.1 138.5,81.7 233.5,108.9 250.2,62.7 155.2,35.5"/>
	</g>
	<g id="left_ghost">
		<polygon class="st0" points="34.4,278.4 70.5,267.4 165.5,294.6 148.6,341.3 54.2,314"/>
	</g>
	<g id="left_full">
		<polygon class="st1" points="34.4,278.4 70.5,267.4 165.5,294.6 148.6,341.3 54.2,314"/>
	</g>
	<g id="right_ghost">
		<polygon class="st0" points="329.3,287.4 346.2,240.8 251.2,213.5 215.3,224.5 234.3,260.2"/>
	</g>
	<g id="right_full">
		<polygon class="st1" points="329.3,287.4 346.2,240.8 251.2,213.5 215.3,224.5 234.3,260.2"/>
	</g>
	<g id="frame">
		<g id="Layer_2-2">
			<g id="Layer_1-2">
				<polygon class="st4" points="85.9,31 187.1,1.1 282.1,28.3 262.2,83.3 318.5,189.7 378.2,206.1 330.7,337.1 248.2,313.8 
					169.7,336.5 150,391 55,363.8 1.1,263.5 44.4,250.4 108.9,73.8 				"/>
				<g>
					<defs>
						<path id="SVGID_1_" d="M239.6,192.1l43.5-13.2l-47.5,131l-22.3-41.5l-138.6,41L55,363.8L1.1,263.5l43.3-13.1l64.5-176.6
							L85.9,31L187.1,1.1l-19.9,55L239.6,192.1z M61.9,245.1l18.8-5.7l47.6-129.6L118.2,91L61.9,245.1 M203.6,203.1l18.7-5.7
							L159,78.7l-8.9,24.6L203.6,203.1 M139.8,131.3l-37.3,101.6l79.2-23.4L139.8,131.3 M82.8,287l121.3-35.8l-10.8-20.1l-101,29.8
							L82.8,287 M53.6,314.1l16.9-46.6l-36.1,11L53.6,314.1 M234.3,260.2l16.9-46.6l-36.1,11L234.3,260.2 M155.2,35.5l-35.9,10.6
							l19.1,35.6L155.2,35.5"/>
					</defs>
					<clipPath id="SVGID_2_">
						<use xlink:href="#SVGID_1_"  style="overflow:visible;"/>
					</clipPath>
					<g class="st5">
						<path class="st6" d="M239.6,192.1l43.5-13.2l-47.5,131l-22.3-41.5l-138.6,41L55,363.8L1.1,263.5l43.3-13.1l64.5-176.6L85.9,31
							L187.1,1.1l-19.9,55L239.6,192.1z M61.9,245.1l18.8-5.7l47.6-129.6L118.2,91L61.9,245.1 M203.6,203.1l18.7-5.7L159,78.7
							l-8.9,24.6L203.6,203.1 M139.8,131.3l-37.3,101.6l79.2-23.4L139.8,131.3 M82.8,287l121.3-35.8l-10.8-20.1l-101,29.8L82.8,287
							 M53.6,314.1l16.9-46.6l-36.1,11L53.6,314.1 M234.3,260.2l16.9-46.6l-36.1,11L234.3,260.2 M155.2,35.5l-35.9,10.6l19.1,35.6
							L155.2,35.5"/>
					</g>
				</g>
				<path class="st6" d="M239.6,192.1l43.5-13.2l-47.5,131l-22.3-41.5l-138.6,41L55,363.8L1.1,263.5l43.3-13.1l64.5-176.6L85.9,31
					L187.1,1.1l-19.9,55L239.6,192.1z M61.9,245.1l18.8-5.7l47.6-129.6L118.2,91L61.9,245.1 M203.6,203.1l18.7-5.7L159,78.7
					l-8.9,24.6L203.6,203.1 M139.8,131.3l-37.3,101.6l79.2-23.4L139.8,131.3 M82.8,287l121.3-35.8l-10.8-20.1l-101,29.8L82.8,287
					 M53.6,314.1l16.9-46.6l-36.1,11L53.6,314.1 M234.3,260.2l16.9-46.6l-36.1,11L234.3,260.2 M155.2,35.5l-35.9,10.6l19.1,35.6
					L155.2,35.5"/>
				<g>
					<defs>
						<path id="SVGID_3_" d="M334.6,219.3l43.5-13.2l-47.5,131l-22.3-41.5l-138.7,40.9L150,391L96.1,290.7l43.3-13.2L203.9,101
							l-23-42.8l101.2-29.9l-19.9,55L334.6,219.3z M157,272.3l18.8-5.7L223.3,137l-10.1-18.8L157,272.3 M298.6,230.3l18.7-5.7
							L254,105.9l-8.9,24.6L298.6,230.3 M234.8,158.5l-37.3,101.6l79.2-23.4L234.8,158.5 M177.8,314.2l121.3-35.8l-10.8-20.1
							l-101,29.8L177.8,314.2 M148.6,341.3l16.9-46.6l-36.1,11L148.6,341.3 M329.3,287.4l16.9-46.6l-36.1,10.9L329.3,287.4
							 M250.2,62.7l-35.9,10.6l19.1,35.6L250.2,62.7"/>
					</defs>
					<clipPath id="SVGID_4_">
						<use xlink:href="#SVGID_3_"  style="overflow:visible;"/>
					</clipPath>
					<g class="st7">
						<path class="st6" d="M334.6,219.3l43.5-13.2l-47.5,131l-22.3-41.5l-138.7,40.9L150,391L96.1,290.7l43.3-13.2L203.9,101
							l-23-42.8l101.2-29.9l-19.9,55L334.6,219.3z M157,272.3l18.8-5.7L223.3,137l-10.1-18.8L157,272.3 M298.6,230.3l18.7-5.7
							L254,105.9l-8.9,24.6L298.6,230.3 M234.8,158.5l-37.3,101.6l79.2-23.4L234.8,158.5 M177.8,314.2l121.3-35.8l-10.8-20.1
							l-101,29.8L177.8,314.2 M148.6,341.3l16.9-46.6l-36.1,11L148.6,341.3 M329.3,287.4l16.9-46.6l-36.1,10.9L329.3,287.4
							 M250.2,62.7l-35.9,10.6l19.1,35.6L250.2,62.7"/>
					</g>
				</g>
				<path class="st6" d="M334.6,219.3l43.5-13.2l-47.5,131l-22.3-41.5l-138.7,40.9L150,391L96.1,290.7l43.3-13.2L203.9,101l-23-42.8
					l101.2-29.9l-19.9,55L334.6,219.3z M157,272.3l18.8-5.7L223.3,137l-10.1-18.8L157,272.3 M298.6,230.3l18.7-5.7L254,105.9
					l-8.9,24.6L298.6,230.3 M234.8,158.5l-37.3,101.6l79.2-23.4L234.8,158.5 M177.8,314.2l121.3-35.8l-10.8-20.1l-101,29.8
					L177.8,314.2 M148.6,341.3l16.9-46.6l-36.1,11L148.6,341.3 M329.3,287.4l16.9-46.6l-36.1,10.9L329.3,287.4 M250.2,62.7
					l-35.9,10.6l19.1,35.6L250.2,62.7"/>
				<g>
					<defs>
						<polygon id="SVGID_5_" points="334.6,219.3 239.6,192.1 283.2,178.9 378.2,206.1 						"/>
					</defs>
					<clipPath id="SVGID_6_">
						<use xlink:href="#SVGID_5_"  style="overflow:visible;"/>
					</clipPath>
					<g class="st8">
						<polygon class="st6" points="334.6,219.3 239.6,192.1 283.2,178.9 378.2,206.1 						"/>
					</g>
				</g>
				<polygon class="st6" points="334.6,219.3 239.6,192.1 283.2,178.9 378.2,206.1 				"/>
				<g>
					<defs>
						<polygon id="SVGID_7_" points="378.2,206.1 330.7,337.1 235.7,309.9 283.2,178.9 						"/>
					</defs>
					<clipPath id="SVGID_8_">
						<use xlink:href="#SVGID_7_"  style="overflow:visible;"/>
					</clipPath>
					<g class="st9">
						<polygon class="st6" points="378.2,206.1 330.7,337.1 235.7,309.9 283.2,178.9 						"/>
					</g>
				</g>
				<polygon class="st6" points="378.2,206.1 330.7,337.1 235.7,309.9 283.2,178.9 				"/>
				<g>
					<defs>
						<polygon id="SVGID_9_" points="330.7,337.1 235.7,309.9 213.4,268.4 308.4,295.6 						"/>
					</defs>
					<clipPath id="SVGID_10_">
						<use xlink:href="#SVGID_9_"  style="overflow:visible;"/>
					</clipPath>
					<g class="st10">
						<polygon class="st6" points="330.7,337.1 235.7,309.9 213.4,268.4 308.4,295.6 						"/>
					</g>
				</g>
				<polygon class="st6" points="330.7,337.1 235.7,309.9 213.4,268.4 308.4,295.6 				"/>
				<g>
					<defs>
						<polygon id="SVGID_11_" points="308.4,295.6 169.7,336.5 74.7,309.3 213.4,268.4 						"/>
					</defs>
					<clipPath id="SVGID_12_">
						<use xlink:href="#SVGID_11_"  style="overflow:visible;"/>
					</clipPath>
					<g class="st11">
						<polygon class="st6" points="308.4,295.6 169.7,336.5 74.7,309.3 213.4,268.4 						"/>
					</g>
				</g>
				<polygon class="st6" points="308.4,295.6 169.7,336.5 74.7,309.3 213.4,268.4 				"/>
				<g>
					<defs>
						<polygon id="SVGID_13_" points="169.7,336.5 150,391 55,363.8 74.7,309.3 						"/>
					</defs>
					<clipPath id="SVGID_14_">
						<use xlink:href="#SVGID_13_"  style="overflow:visible;"/>
					</clipPath>
					<g class="st12">
						<polygon class="st6" points="169.7,336.5 150,391 55,363.8 74.7,309.3 						"/>
					</g>
				</g>
				<polygon class="st6" points="169.7,336.5 150,391 55,363.8 74.7,309.3 				"/>
				<g>
					<defs>
						<polygon id="SVGID_15_" points="150,391 55,363.8 1.1,263.5 96.1,290.7 						"/>
					</defs>
					<clipPath id="SVGID_16_">
						<use xlink:href="#SVGID_15_"  style="overflow:visible;"/>
					</clipPath>
					<g class="st13">
						<polygon class="st6" points="150,391 55,363.8 1.1,263.5 96.1,290.7 						"/>
					</g>
				</g>
				<polygon class="st6" points="150,391 55,363.8 1.1,263.5 96.1,290.7 				"/>
				<g>
					<defs>
						<polygon id="SVGID_17_" points="96.1,290.7 1.1,263.5 44.4,250.4 139.4,277.6 						"/>
					</defs>
					<clipPath id="SVGID_18_">
						<use xlink:href="#SVGID_17_"  style="overflow:visible;"/>
					</clipPath>
					<g class="st14">
						<polygon class="st6" points="96.1,290.7 1.1,263.5 44.4,250.4 139.4,277.6 						"/>
					</g>
				</g>
				<polygon class="st6" points="96.1,290.7 1.1,263.5 44.4,250.4 139.4,277.6 				"/>
				<g>
					<defs>
						<polygon id="SVGID_19_" points="139.4,277.6 44.4,250.4 108.9,73.8 203.9,101 						"/>
					</defs>
					<clipPath id="SVGID_20_">
						<use xlink:href="#SVGID_19_"  style="overflow:visible;"/>
					</clipPath>
					<g class="st15">
						<polygon class="st6" points="139.4,277.6 44.4,250.4 108.9,73.8 203.9,101 						"/>
					</g>
				</g>
				<polygon class="st6" points="139.4,277.6 44.4,250.4 108.9,73.8 203.9,101 				"/>
				<g>
					<defs>
						<polygon id="SVGID_21_" points="203.9,101 108.9,73.8 85.9,31 180.9,58.2 						"/>
					</defs>
					<clipPath id="SVGID_22_">
						<use xlink:href="#SVGID_21_"  style="overflow:visible;"/>
					</clipPath>
					<g class="st16">
						<polygon class="st6" points="203.9,101 108.9,73.8 85.9,31 180.9,58.2 						"/>
					</g>
				</g>
				<polygon class="st6" points="203.9,101 108.9,73.8 85.9,31 180.9,58.2 				"/>
				<g>
					<defs>
						<polygon id="SVGID_23_" points="180.9,58.2 85.9,31 187.1,1.1 282.1,28.3 						"/>
					</defs>
					<clipPath id="SVGID_24_">
						<use xlink:href="#SVGID_23_"  style="overflow:visible;"/>
					</clipPath>
					<g class="st17">
						<polygon class="st6" points="180.9,58.2 85.9,31 187.1,1.1 282.1,28.3 						"/>
					</g>
				</g>
				<polygon class="st6" points="180.9,58.2 85.9,31 187.1,1.1 282.1,28.3 				"/>
				<g>
					<defs>
						<polygon id="SVGID_25_" points="282.1,28.3 262.2,83.3 167.1,56.1 187.1,1.1 						"/>
					</defs>
					<clipPath id="SVGID_26_">
						<use xlink:href="#SVGID_25_"  style="overflow:visible;"/>
					</clipPath>
					<g class="st18">
						<polygon class="st6" points="282.1,28.3 262.2,83.3 167.1,56.1 187.1,1.1 						"/>
					</g>
				</g>
				<polygon class="st6" points="282.1,28.3 262.2,83.3 167.1,56.1 187.1,1.1 				"/>
				<g>
					<defs>
						<polygon id="SVGID_27_" points="262.2,83.3 334.6,219.3 239.6,192.1 167.1,56.1 						"/>
					</defs>
					<clipPath id="SVGID_28_">
						<use xlink:href="#SVGID_27_"  style="overflow:visible;"/>
					</clipPath>
					<g class="st19">
						<polygon class="st6" points="262.2,83.3 334.6,219.3 239.6,192.1 167.1,56.1 						"/>
					</g>
				</g>
				<polygon class="st6" points="262.2,83.3 334.6,219.3 239.6,192.1 167.1,56.1 				"/>
				<g>
					<defs>
						<polygon id="SVGID_29_" points="156.9,272.3 61.9,245.1 80.7,239.4 175.7,266.6 						"/>
					</defs>
					<clipPath id="SVGID_30_">
						<use xlink:href="#SVGID_29_"  style="overflow:visible;"/>
					</clipPath>
					<g class="st20">
						<polygon class="st6" points="156.9,272.3 61.9,245.1 80.7,239.4 175.7,266.6 						"/>
					</g>
				</g>
				<polygon class="st6" points="156.9,272.3 61.9,245.1 80.7,239.4 175.7,266.6 				"/>
				<g>
					<defs>
						<polygon id="SVGID_31_" points="175.7,266.6 80.7,239.4 128.2,109.8 223.3,137 						"/>
					</defs>
					<clipPath id="SVGID_32_">
						<use xlink:href="#SVGID_31_"  style="overflow:visible;"/>
					</clipPath>
					<g class="st21">
						<polygon class="st6" points="175.7,266.6 80.7,239.4 128.2,109.8 223.3,137 						"/>
					</g>
				</g>
				<polygon class="st6" points="175.7,266.6 80.7,239.4 128.2,109.8 223.3,137 				"/>
				<g>
					<defs>
						<polygon id="SVGID_33_" points="223.3,137 128.2,109.8 118.2,91 213.2,118.2 						"/>
					</defs>
					<clipPath id="SVGID_34_">
						<use xlink:href="#SVGID_33_"  style="overflow:visible;"/>
					</clipPath>
					<g class="st22">
						<polygon class="st6" points="223.3,137 128.2,109.8 118.2,91 213.2,118.2 						"/>
					</g>
				</g>
				<polygon class="st6" points="223.3,137 128.2,109.8 118.2,91 213.2,118.2 				"/>
				<g>
					<defs>
						<polygon id="SVGID_35_" points="213.2,118.2 156.9,272.3 61.9,245.1 118.2,91 						"/>
					</defs>
					<clipPath id="SVGID_36_">
						<use xlink:href="#SVGID_35_"  style="overflow:visible;"/>
					</clipPath>
					<g class="st23">
						<polygon class="st6" points="213.2,118.2 156.9,272.3 61.9,245.1 118.2,91 						"/>
					</g>
				</g>
				<polygon class="st6" points="213.2,118.2 156.9,272.3 61.9,245.1 118.2,91 				"/>
				<g>
					<defs>
						<polygon id="SVGID_37_" points="298.6,230.2 203.6,203 222.2,197.3 317.3,224.6 						"/>
					</defs>
					<clipPath id="SVGID_38_">
						<use xlink:href="#SVGID_37_"  style="overflow:visible;"/>
					</clipPath>
					<g class="st24">
						<polygon class="st6" points="298.6,230.2 203.6,203 222.2,197.3 317.3,224.6 						"/>
					</g>
				</g>
				<polygon class="st6" points="298.6,230.2 203.6,203 222.2,197.3 317.3,224.6 				"/>
				<g>
					<defs>
						<polygon id="SVGID_39_" points="317.3,224.6 222.2,197.3 159,78.7 254,105.9 						"/>
					</defs>
					<clipPath id="SVGID_40_">
						<use xlink:href="#SVGID_39_"  style="overflow:visible;"/>
					</clipPath>
					<g class="st25">
						<polygon class="st6" points="317.3,224.6 222.2,197.3 159,78.7 254,105.9 						"/>
					</g>
				</g>
				<polygon class="st6" points="317.3,224.6 222.2,197.3 159,78.7 254,105.9 				"/>
				<g>
					<defs>
						<polygon id="SVGID_41_" points="254,105.9 245.1,130.5 150.1,103.3 159,78.7 						"/>
					</defs>
					<clipPath id="SVGID_42_">
						<use xlink:href="#SVGID_41_"  style="overflow:visible;"/>
					</clipPath>
					<g class="st26">
						<polygon class="st6" points="254,105.9 245.1,130.5 150.1,103.3 159,78.7 						"/>
					</g>
				</g>
				<polygon class="st6" points="254,105.9 245.1,130.5 150.1,103.3 159,78.7 				"/>
				<g>
					<defs>
						<polygon id="SVGID_43_" points="245.1,130.5 298.6,230.2 203.6,203 150.1,103.3 						"/>
					</defs>
					<clipPath id="SVGID_44_">
						<use xlink:href="#SVGID_43_"  style="overflow:visible;"/>
					</clipPath>
					<g class="st27">
						<polygon class="st6" points="245.1,130.5 298.6,230.2 203.6,203 150.1,103.3 						"/>
					</g>
				</g>
				<polygon class="st6" points="245.1,130.5 298.6,230.2 203.6,203 150.1,103.3 				"/>
				<g>
					<defs>
						<polygon id="SVGID_45_" points="234.8,158.5 197.5,260.1 102.5,232.9 139.8,131.3 						"/>
					</defs>
					<clipPath id="SVGID_46_">
						<use xlink:href="#SVGID_45_"  style="overflow:visible;"/>
					</clipPath>
					<g class="st28">
						<polygon class="st6" points="234.8,158.5 197.5,260.1 102.5,232.9 139.8,131.3 						"/>
					</g>
				</g>
				<polygon class="st6" points="234.8,158.5 197.5,260.1 102.5,232.9 139.8,131.3 				"/>
				<g>
					<defs>
						<polygon id="SVGID_47_" points="197.5,260.1 102.5,232.9 181.8,209.5 276.8,236.7 						"/>
					</defs>
					<clipPath id="SVGID_48_">
						<use xlink:href="#SVGID_47_"  style="overflow:visible;"/>
					</clipPath>
					<g class="st29">
						<polygon class="st6" points="197.5,260.1 102.5,232.9 181.8,209.5 276.8,236.7 						"/>
					</g>
				</g>
				<polygon class="st6" points="197.5,260.1 102.5,232.9 181.8,209.5 276.8,236.7 				"/>
				<g>
					<defs>
						<polygon id="SVGID_49_" points="276.8,236.7 181.8,209.5 139.8,131.3 234.8,158.5 						"/>
					</defs>
					<clipPath id="SVGID_50_">
						<use xlink:href="#SVGID_49_"  style="overflow:visible;"/>
					</clipPath>
					<g class="st30">
						<polygon class="st6" points="276.8,236.7 181.8,209.5 139.8,131.3 234.8,158.5 						"/>
					</g>
				</g>
				<polygon class="st6" points="276.8,236.7 181.8,209.5 139.8,131.3 234.8,158.5 				"/>
				<g>
					<defs>
						<polygon id="SVGID_51_" points="177.9,314.2 82.8,287 204.1,251.2 299.1,278.4 						"/>
					</defs>
					<clipPath id="SVGID_52_">
						<use xlink:href="#SVGID_51_"  style="overflow:visible;"/>
					</clipPath>
					<g class="st31">
						<polygon class="st6" points="177.9,314.2 82.8,287 204.1,251.2 299.1,278.4 						"/>
					</g>
				</g>
				<polygon class="st6" points="177.9,314.2 82.8,287 204.1,251.2 299.1,278.4 				"/>
				<g>
					<defs>
						<polygon id="SVGID_53_" points="299.1,278.4 204.1,251.2 193.3,231.1 288.3,258.3 						"/>
					</defs>
					<clipPath id="SVGID_54_">
						<use xlink:href="#SVGID_53_"  style="overflow:visible;"/>
					</clipPath>
					<g class="st32">
						<polygon class="st6" points="299.1,278.4 204.1,251.2 193.3,231.1 288.3,258.3 						"/>
					</g>
				</g>
				<polygon class="st6" points="299.1,278.4 204.1,251.2 193.3,231.1 288.3,258.3 				"/>
				<g>
					<defs>
						<polygon id="SVGID_55_" points="288.3,258.3 187.3,288.1 92.3,260.9 193.3,231.1 						"/>
					</defs>
					<clipPath id="SVGID_56_">
						<use xlink:href="#SVGID_55_"  style="overflow:visible;"/>
					</clipPath>
					<g class="st33">
						<polygon class="st6" points="288.3,258.3 187.3,288.1 92.3,260.9 193.3,231.1 						"/>
					</g>
				</g>
				<polygon class="st6" points="288.3,258.3 187.3,288.1 92.3,260.9 193.3,231.1 				"/>
				<g>
					<defs>
						<polygon id="SVGID_57_" points="187.3,288.1 177.9,314.2 82.8,287 92.3,260.9 						"/>
					</defs>
					<clipPath id="SVGID_58_">
						<use xlink:href="#SVGID_57_"  style="overflow:visible;"/>
					</clipPath>
					<g class="st34">
						<polygon class="st6" points="187.3,288.1 177.9,314.2 82.8,287 92.3,260.9 						"/>
					</g>
				</g>
				<polygon class="st6" points="187.3,288.1 177.9,314.2 82.8,287 92.3,260.9 				"/>
				<g>
					<defs>
						<polygon id="SVGID_59_" points="148.6,341.3 53.6,314.1 70.5,267.4 165.5,294.6 						"/>
					</defs>
					<clipPath id="SVGID_60_">
						<use xlink:href="#SVGID_59_"  style="overflow:visible;"/>
					</clipPath>
					<g class="st35">
						<polygon class="st6" points="148.6,341.3 53.6,314.1 70.5,267.4 165.5,294.6 						"/>
					</g>
				</g>
				<polygon class="st6" points="148.6,341.3 53.6,314.1 70.5,267.4 165.5,294.6 				"/>
				<g>
					<defs>
						<polygon id="SVGID_61_" points="165.5,294.6 129.4,305.6 34.4,278.4 70.5,267.4 						"/>
					</defs>
					<clipPath id="SVGID_62_">
						<use xlink:href="#SVGID_61_"  style="overflow:visible;"/>
					</clipPath>
					<g class="st36">
						<polygon class="st6" points="165.5,294.6 129.4,305.6 34.4,278.4 70.5,267.4 						"/>
					</g>
				</g>
				<polygon class="st6" points="165.5,294.6 129.4,305.6 34.4,278.4 70.5,267.4 				"/>
				<g>
					<defs>
						<polygon id="SVGID_63_" points="129.4,305.6 148.6,341.3 53.6,314.1 34.4,278.4 						"/>
					</defs>
					<clipPath id="SVGID_64_">
						<use xlink:href="#SVGID_63_"  style="overflow:visible;"/>
					</clipPath>
					<g class="st37">
						<polygon class="st6" points="129.4,305.6 148.6,341.3 53.6,314.1 34.4,278.4 						"/>
					</g>
				</g>
				<polygon class="st6" points="129.4,305.6 148.6,341.3 53.6,314.1 34.4,278.4 				"/>
				<g>
					<defs>
						<polygon id="SVGID_65_" points="329.3,287.4 234.3,260.2 251.2,213.5 346.2,240.8 						"/>
					</defs>
					<clipPath id="SVGID_66_">
						<use xlink:href="#SVGID_65_"  style="overflow:visible;"/>
					</clipPath>
					<g class="st38">
						<polygon class="st6" points="329.3,287.4 234.3,260.2 251.2,213.5 346.2,240.8 						"/>
					</g>
				</g>
				<polygon class="st6" points="329.3,287.4 234.3,260.2 251.2,213.5 346.2,240.8 				"/>
				<g>
					<defs>
						<polygon id="SVGID_67_" points="346.2,240.8 310.1,251.7 215.1,224.5 251.2,213.5 						"/>
					</defs>
					<clipPath id="SVGID_68_">
						<use xlink:href="#SVGID_67_"  style="overflow:visible;"/>
					</clipPath>
					<g class="st39">
						<polygon class="st6" points="346.2,240.8 310.1,251.7 215.1,224.5 251.2,213.5 						"/>
					</g>
				</g>
				<polygon class="st6" points="346.2,240.8 310.1,251.7 215.1,224.5 251.2,213.5 				"/>
				<g>
					<defs>
						<polygon id="SVGID_69_" points="310.1,251.7 329.3,287.4 234.3,260.2 215.1,224.5 						"/>
					</defs>
					<clipPath id="SVGID_70_">
						<use xlink:href="#SVGID_69_"  style="overflow:visible;"/>
					</clipPath>
					<g class="st40">
						<polygon class="st6" points="310.1,251.7 329.3,287.4 234.3,260.2 215.1,224.5 						"/>
					</g>
				</g>
				<polygon class="st6" points="310.1,251.7 329.3,287.4 234.3,260.2 215.1,224.5 				"/>
				<g>
					<defs>
						<polygon id="SVGID_71_" points="250.2,62.7 214.4,73.3 119.3,46.1 155.2,35.5 						"/>
					</defs>
					<clipPath id="SVGID_72_">
						<use xlink:href="#SVGID_71_"  style="overflow:visible;"/>
					</clipPath>
					<g class="st41">
						<polygon class="st6" points="250.2,62.7 214.4,73.3 119.3,46.1 155.2,35.5 						"/>
					</g>
				</g>
				<polygon class="st6" points="250.2,62.7 214.4,73.3 119.3,46.1 155.2,35.5 				"/>
				<g>
					<defs>
						<polygon id="SVGID_73_" points="214.4,73.3 233.5,108.9 138.5,81.7 119.3,46.1 						"/>
					</defs>
					<clipPath id="SVGID_74_">
						<use xlink:href="#SVGID_73_"  style="overflow:visible;"/>
					</clipPath>
					<g class="st42">
						<polygon class="st6" points="214.4,73.3 233.5,108.9 138.5,81.7 119.3,46.1 						"/>
					</g>
				</g>
				<polygon class="st6" points="214.4,73.3 233.5,108.9 138.5,81.7 119.3,46.1 				"/>
				<g>
					<defs>
						<polygon id="SVGID_75_" points="233.5,108.9 138.5,81.7 155.2,35.5 250.2,62.7 						"/>
					</defs>
					<clipPath id="SVGID_76_">
						<use xlink:href="#SVGID_75_"  style="overflow:visible;"/>
					</clipPath>
					<g class="st43">
						<polygon class="st6" points="233.5,108.9 138.5,81.7 155.2,35.5 250.2,62.7 						"/>
					</g>
				</g>
				<polygon class="st6" points="233.5,108.9 138.5,81.7 155.2,35.5 250.2,62.7 				"/>
			</g>
		</g>
	</g>
</g>
</svg>
